<?xml version="1.0" encoding="UTF-8"?>
<svg id="Camada_2" data-name="Camada 2" xmlns="http://www.w3.org/2000/svg" viewBox="0 0 84.73 55.12">
  <g id="Camada_1-2" data-name="Camada 1">
    <path d="M3.13,19.18s-.04,0-.06,0h0c-1.7.03-3.05,1.42-3.05,3.12v10.54c0,1.73,1.4,3.12,3.12,3.12s3.12-1.4,3.12-3.12v-10.54c0-1.73-1.4-3.12-3.12-3.12h0ZM52.17,19.18s-.04,0-.06,0h0c-1.7.04-3.06,1.42-3.06,3.12v10.54c0,1.73,1.4,3.12,3.12,3.12s3.12-1.4,3.12-3.12v-10.54c0-1.73-1.4-3.12-3.12-3.13ZM81.6,19.18s-.04,0-.06,0h0c-1.7.04-3.06,1.42-3.06,3.12v10.54c0,1.73,1.4,3.12,3.12,3.12s3.12-1.4,3.12-3.12v-10.54c0-1.73-1.4-3.12-3.12-3.13ZM71.79,9h-.07c-1.69.04-3.05,1.42-3.05,3.12v26.62c0,1.73,1.4,3.13,3.12,3.13s3.12-1.4,3.12-3.12V12.12c0-1.73-1.4-3.12-3.12-3.12h0ZM12.93,11.14h-.07c-1.7.04-3.06,1.42-3.06,3.12v26.62c0,1.73,1.4,3.13,3.12,3.13s3.12-1.4,3.12-3.12V14.27c0-1.73-1.4-3.12-3.12-3.13ZM42.36,11.14h-.07c-1.7.04-3.06,1.42-3.06,3.12v26.62c0,1.73,1.4,3.13,3.12,3.13s3.12-1.4,3.12-3.12V14.27c0-1.73-1.4-3.12-3.12-3.13ZM32.53,0h-.07c-1.71.04-3.08,1.43-3.08,3.15v48.83c0,1.72,1.4,3.12,3.12,3.12s3.12-1.4,3.12-3.12l.05-48.83c0-1.74-1.41-3.15-3.15-3.15h0ZM22.77.02s-.04,0-.06,0h0c-1.71.04-3.08,1.43-3.08,3.14v48.83c0,1.73,1.4,3.12,3.12,3.12s3.12-1.4,3.12-3.12h0s.05-48.83.05-48.83h0C25.92,1.43,24.51.02,22.77.02h0ZM61.96.02s-.04,0-.06,0h0c-1.71.04-3.08,1.43-3.08,3.14v48.83c0,1.73,1.4,3.12,3.12,3.12s3.12-1.4,3.12-3.12h0s.05-48.83.05-48.83h0c0-1.74-1.41-3.15-3.15-3.15h0Z"/>
  </g>
</svg>