<?xml version="1.0" encoding="UTF-8"?>
<svg id="Camada_2" data-name="Camada 2" xmlns="http://www.w3.org/2000/svg" viewBox="0 0 102.06 103.42">
  <g id="Camada_1-2" data-name="Camada 1">
    <path d="M33.08,42.43c-5.56,5.63-23.5,11.56-33.08,14.43,9.35,2.94,26.64,8.9,32.07,14.34,5.47,5.47,11.46,22.9,14.38,32.22,2.92-9.32,8.91-26.75,14.38-32.22,5.44-5.44,22.72-11.4,32.07-14.34-9.59-2.87-27.53-8.8-33.08-14.43-5.27-5.34-10.65-22.14-13.37-31.6-2.72,9.46-8.1,26.25-13.37,31.6ZM86.96,13.86c-2.5-2.53-4.9-8.45-6.72-13.86-1.8,5.4-4.22,11.32-6.72,13.86-2.72,2.77-9.32,5.47-15.11,7.44,5.55,1.98,11.84,4.64,14.47,7.27,2.67,2.67,5.35,9.07,7.35,14.67,1.98-5.6,4.67-12.01,7.35-14.67,2.63-2.63,8.92-5.3,14.47-7.27-5.77-1.97-12.37-4.67-15.11-7.44Z"/>
  </g>
</svg>