<?xml version="1.0" encoding="UTF-8"?>
<svg id="Camada_2" data-name="Camada 2" xmlns="http://www.w3.org/2000/svg" viewBox="0 0 64 64">
  <g id="Camada_1-2" data-name="Camada 1">
    <path d="M61.62.04L19.22,8c-.95.18-1.63,1-1.64,1.96v37.58c-2.54-1.54-5.57-2.05-8.48-1.46C3.22,47.2-.8,52.08.14,56.96H.14c.52,2.52,2.18,4.66,4.5,5.78,1.67.84,3.52,1.27,5.38,1.26.82,0,1.65-.08,2.46-.24,2.67-.47,5.1-1.82,6.9-3.84,1.54-1.7,2.31-3.97,2.12-6.26.04-.13.07-.27.08-.4v-29.64l38.42-7.22v21.88c-.22-.14-.42-.3-.66-.44h0c-5-2.4-10.97-1.25-14.72,2.82-1.75,1.9-2.52,4.5-2.08,7.04.8,4.18,5.02,7.04,9.92,7.04h0c.82,0,1.64-.08,2.44-.24,5.62-1.08,9.52-5.58,9.04-10.24h0c.03-.09.05-.17.06-.26V2c0-.6-.27-1.16-.73-1.54-.46-.38-1.07-.54-1.66-.42h0Z"/>
  </g>
</svg>