<?xml version="1.0" encoding="UTF-8"?>
<svg id="Camada_2" data-name="Camada 2" xmlns="http://www.w3.org/2000/svg" viewBox="0 0 572.32 528.38">
  <defs>
    <style>
      .cls-1 {
        fill: #fafafa;
      }
    </style>
  </defs>
  <g id="Insta">
    <g id="Camada_1-2" data-name="Camada 1">
      <g>
        <path class="cls-1" d="M550.52,165.13c12,0,21.8,9.43,21.8,22.17s-9.8,22.17-21.8,22.17-21.81-9.34-21.81-22.17,9.8-22.17,21.81-22.17ZM568.56,187.3c0-10.9-7.6-18.97-18.04-18.97s-18.05,8.07-18.05,18.97,7.6,18.97,18.05,18.97,18.04-7.98,18.04-18.97Z"/>
        <path class="cls-1" d="M560.5,198.48v.27h-4.49c-.64-.27-.91-2.93-1.01-5.4-.09-2.48-1.55-4.03-4.48-4.03h-3.85v9.43h-4.68v-23.45h10.82c4.3,0,7.42,2.75,7.42,6.59,0,2.66-1.38,4.86-4.4,5.59v.09c2.29.65,3.39,1.93,3.66,4.77.37,3.3.19,5.77,1.01,6.14ZM555.65,182.44c0-1.92-1.29-3.29-3.85-3.29h-5.13v6.59h5.13c2.56,0,3.85-1.37,3.85-3.3Z"/>
        <path class="cls-1" d="M536.46,267.62c10.71,56.67-37.22,105.49-93.85,96.59-13.23,25.84-37.28,46.3-64.58,56.1-36.57,13.12-77.08,7.64-108.93-14.29-22,24.31-50.94,41.82-83.24,48.59C80.58,476.66-13.82,387.95,1.68,281.47c9.33-64.11,59.65-116.23,123.22-128.2,55.78-10.49,112.29,10.37,148.03,53.88,8.93-5.65,18.55-10.3,28.67-13.45,38.12-11.85,79.5-4.09,110.57,20.66,6.8-3.25,13.31-7.38,20.79-9.02-11.53-23.47,8.71-49.89,34.47-44.3,17.84,3.87,28.15,22.35,22.64,39.75-.85,2.67-2.42,4.8-2.89,7.43,24.95,9.27,44.34,33.24,49.28,59.4ZM482.86,332.01l-2.4-16.79c-3.16.36-6.66,1.33-9.81,1.46-1.1.04-4.73.34-5-.78l11.47-68.12c.39-3.58-7.88-10.42-10.8-10.78-1-.12-2.32-.03-3.37.02-10.74.49-22.66,2.91-33.59,3.82-1.51.13-3.05-.07-4.56.01l1.01,17.7,16.75,1.01-10.02,62.68c-1.79,4.02,7.25,12.15,10.28,12.63,6.12.96,15.75.52,22.04.02,6.06-.49,12.09-1.62,18-2.88ZM466.7,200.94c12.02-6.34,6.38-25.99-9.39-23.31-2.46.42-6.17,3.42-7.48,5.48-6.93,10.97,5.17,24.01,16.87,17.83ZM414.16,372.21l-6.16-25.31c-.73-.71-17.34,4.43-19.55,2.27-.71-.7-.21-5.04-.11-6.36,2.68-35.77,8.81-71.95,13.46-107.5l-.24-1.2-40.78-11.51c-2.41,4.54-3.83,9.59-5.95,14.25-.35.79-.88,2.65-1.76,2.6-1.36-.07-8.77-5.66-10.95-6.84-12.22-6.6-27.69-9.06-41.12-4.96-49.57,15.14-80.59,132.52-23.75,152.83,25.51,9.13,48.17-7.96,61.38-28.36,2.02-3.1,2.71-7.94,7.02-4.43.9,6.57-1.51,18.36.58,24.27.94,2.66,10.33,9.3,13.19,9.84,1.4.26,3.25.18,4.71.13,9.77-.29,20.92-1.71,30.53-3.53,2.52-.47,18.63-4.02,19.39-5.11l.11-1.08ZM251.59,212.54h-79.66l-2.39,26.86c3.29,1,21.5.2,22.91,1.57.28.26.39.74.44,1.13-1.88,21.08-3.39,42.22-5.6,63.28-3.31,31.5-3.65,90.81-49.17,87.08-25.11-2.06-31.32-26.37-29.06-47.75l11.18-102.53,1.04-1.36c6.42-1.12,13.37-.38,19.84-1.51l3.95-26.76H54.86s-3.34,26.84-3.34,26.84c.53.62,13.78.85,15.81.98l-11.05,105.3c-1.4,28.94,5.54,54.8,32.16,69.6,23.56,13.1,65.29,13.46,89.1.79,32.58-17.34,41.56-52.66,46.16-86.75l9.66-88.94c2.25-.22,14.31-.15,15.24-1.07,1.62-8.82,2.47-17.8,2.99-26.76Z"/>
        <path class="cls-1" d="M462.17,466.9c.36.41-.53,10.56-.95,10.92-.39.33-3.4-.12-4.27.06-.08-3.6.91-7.47-3.64-8.12-3.31-.47-8.15.29-9.81,3.54-3.95,7.71,5.86,8.77,10.34,11.76,9.47,6.31,4.85,18.04-4.95,20.5-2.92.73-14.28,1.24-16.42-.57-.99-.84-.24-11.43.29-11.82.84-.6,2.98-.38,4.04-.43.26.27.23,6.34.55,7.37.8,2.54,13.71,3.42,14.77-3.31,1.26-7.97-7.09-8.05-11.93-11.52-4.79-3.42-5.36-9.26-1.95-13.88,5.28-7.15,16.21-7.14,23.93-4.5Z"/>
        <path class="cls-1" d="M415.57,465.52c26.54-3.81,16.54,38.64-3.49,40.66-26.58,2.67-14.47-38.08,3.49-40.66ZM419.05,497.31c3.94-5.07,8-20.97,3.19-25.99-3.63-3.78-9.8-.67-12.56,2.7-4.11,5.01-7.92,19.92-4.29,25.42,3.41,5.16,10.58,1.81,13.66-2.13Z"/>
        <path class="cls-1" d="M400.7,442.5l-13.8,58.88c2.35.21,4.43-1.12,6.71-1.44-.19.94.93,3.74.45,4.29-.3.34-7.81,1.95-8.84,1.98-8.54.28-2.21-7.45-2.88-12.02-3.67,3.95-13.23,13.36-18.97,12.28-3.8-.71-7.06-4.86-7.22-8.68-.38-9.4,7.57-27.97,16.98-31.52,6-2.26,8.92-.45,14,2.02.45.22.35.8.97,0l4.55-22.08c-4.27.09-9.34,2.78-8.15-3.84l13.67-2.4c.83.08,2.51,1.65,2.53,2.53ZM386.31,475.58c.43-3.72-4.75-5.16-7.81-5.12-7.63.11-11.79,10.19-13.54,16.43-3.98,14.17.12,18.78,11.61,8.24,5.95-5.45,8.81-11.49,9.74-19.55Z"/>
        <path class="cls-1" d="M385.94,37.89c.35.3-4.15,7.22-4.69,8.02-5.67,8.38-14.97,19.12-24.96,22.07-19.34,5.73-26.87-15.74-8.75-25.54,11.49-6.21,25.78-5.36,38.4-4.55Z"/>
        <path class="cls-1" d="M370.58,76.76c.42.36-2.43,4.82-2.87,5.52-7.83,12.71-21.55,29.89-36.47,34.06-24.33,6.8-33.93-20.12-12.32-32.95,14.82-8.79,35.09-8.27,51.66-6.63Z"/>
        <path class="cls-1" d="M359.07,125.22c.8.71-10.04,16.82-11.13,18.38-12.13,17.37-33.35,40.86-55.46,43.86-26.85,3.63-41.96-22.01-24.11-42.82,19.54-22.8,63.42-22.04,90.7-19.42Z"/>
        <path class="cls-1" d="M355.67,466.66l-8.12,34.72,6.71-1.43c0,.93.96,3.67.44,4.27-.34.4-9.13,2.07-10.28,2.01-6.53-.39-1.4-8.24-1.19-12.04-4.49,3.81-11,11.67-17.16,12.38-2.7.31-7.19-3.2-7.95-5.74-1.56-5.18,1.43-14.84,3.59-19.77,4.63-10.59,15.45-22.41,26.56-11.35,1.12-.47,1.97-4.62,2.19-4.77.3-.22,4.99,1.04,5.21,1.72ZM343.94,486.02c.89-2.11,3.13-9.74,2.55-11.64-.66-2.21-5.62-4.09-7.74-4.01-6.6.25-11.3,12.02-12.65,17.48-.82,3.29-3.45,14.84,3.08,12.69,4.8-1.58,12.81-9.87,14.76-14.52Z"/>
        <path class="cls-1" d="M335.8,0c6.14,12.43,12.77,36.03,2.65,47.74-7.64,8.83-19.45,4.94-21.94-5.91-3.37-14.69,9.81-31.75,19.29-41.83Z"/>
        <path class="cls-1" d="M342.2,264.72c-2.49,21.93-5.2,59.05-24.17,73.52-5.51,4.2-17.13,8.86-22.03,1.9-5.57-7.92-1.52-31.14.54-40.67,2.76-12.8,10.24-41.88,25.95-43.61,6.61-.73,16.29,2.81,19.71,8.86Z"/>
        <path class="cls-1" d="M322.6,465.88v4.8h-9.12c4.26,8.76.18,21.41-8.98,25.32-4.5,1.92-11.33.55-14.08,4.63-1.77,2.63,1.74,3.16,3.75,3.51,6.94,1.21,21.76-.64,21.75,9.96,0,14.91-32.42,18.47-39.39,9.12-5.85-7.86,5.56-12.42,11.04-15.12-8.62-5.32-3-8.57,2.87-12.23-12.5-8.14-3.74-28.81,9.42-30.42,4.27-.52,6.77.61,10.49.93,3.77.32,8.53.06,12.25-.5ZM282.4,520.24c1.69,5.69,28.74,6.25,26.27-6.61-.4-2.11-3.37-2.65-5.15-3.01-1.82-.36-9.51-1.48-10.93-1.34-.55.05-5.15,2.86-5.93,3.42-2.64,1.89-5.38,3.78-4.26,7.54ZM298.91,493.33c7.08-.98,9.75-10.55,9.31-16.67-.33-4.63-2.26-7.85-7.32-7.31-10.25,1.11-14.15,25.67-1.99,23.98Z"/>
        <path class="cls-1" d="M309.17,36.68c5.3,15.13,10.77,40.39-1.2,53.52-9.22,10.1-24,6.13-27.94-6.62-5.96-19.29,12.3-43.69,25.06-56.71.53,0,3.68,8.67,4.08,9.81Z"/>
        <path class="cls-1" d="M284.58,442.5l-13.8,58.88,8.63-1.43c-.49,1.18.56,3.31.49,4.03-.1,1.09-11.12,2.45-12.75,2.23-1.63-.23-2.5-1.48-3.46-2.72l13.32-57.05-9.11.25c.12-.76-.17-4.17,0-4.32.09-.09,1.93.04,2.58-.06,2.33-.37,10.16-2.49,11.57-2.34.83.08,2.52,1.65,2.53,2.53Z"/>
        <path class="cls-1" d="M266.59,70.63c6.43,20.92,11.72,49.96-.05,69.78-14.39,24.26-45.97,15.72-48.48-11.66-2.74-29.88,20.88-59.77,40-80.29,3.36,7.13,6.21,14.62,8.53,22.17Z"/>
        <path class="cls-1" d="M262.6,466.39l-8.62,34.75c-.03,1.03,6.81-1.59,7.2-1.2-.22,1.11.94,2.91.28,3.86-.47.68-7.06,2.23-8.25,2.32-8.81.71-4.21-5.78-3.27-10.94.13-.72.63-1.13-.51-1-2.85,3.96-12.36,12.65-17.23,12.46-2.74-.11-7-3.7-7.46-6.48-2.28-13.71,13.54-46.72,30.45-30.45.81,0,1.83-4.51,2.19-4.78.31-.23,4.37,1.32,5.22,1.46ZM253.39,476.55c.46-3.87-4.27-6.32-7.73-6.18-6.99.28-11.88,13.18-13.12,18.92-2.51,11.56-.01,15.41,9.94,7.06,6.26-5.25,9.93-11.56,10.91-19.8Z"/>
        <path class="cls-1" d="M224.69,467.99c-.76,1.29-.58,9.53-.93,9.89-.15.15-4.17.15-4.32-.01-.71-.74.45-6.07-1.57-7.3-5.15-3.15-15.36,1-12.46,8.14,1.79,4.42,15.05,4.69,15.9,13.86,1.28,13.74-17.75,16.01-27.24,12.12.66-1.73.1-10.98.47-11.41.28-.33,3.66-.77,4.3-.32,1.77,1.24-2,8.04,4.58,8.85,5.65.69,12.54-1.17,11.11-8.23-1.28-6.36-15.42-5.58-16.21-14.99-.93-11.09,12.15-14.15,20.83-13.14,1.21.14,5.51,1.08,5.54,2.54Z"/>
      </g>
    </g>
  </g>
</svg>